<svg id="visual" viewBox="0 0 900 900" width="900" height="900" xmlns="http://www.w3.org/2000/svg" xmlns:xlink="http://www.w3.org/1999/xlink" version="1.1"><path d="M0 316L53 316L53 28L106 28L106 172L159 172L159 55L212 55L212 55L265 55L265 244L318 244L318 64L371 64L371 154L424 154L424 280L476 280L476 271L529 271L529 217L582 217L582 199L635 199L635 280L688 280L688 262L741 262L741 253L794 253L794 136L847 136L847 28L900 28L900 244L900 0L900 0L847 0L847 0L794 0L794 0L741 0L741 0L688 0L688 0L635 0L635 0L582 0L582 0L529 0L529 0L476 0L476 0L424 0L424 0L371 0L371 0L318 0L318 0L265 0L265 0L212 0L212 0L159 0L159 0L106 0L106 0L53 0L53 0L0 0Z" fill="#009473"></path><path d="M0 361L53 361L53 307L106 307L106 595L159 595L159 154L212 154L212 487L265 487L265 469L318 469L318 514L371 514L371 388L424 388L424 667L476 667L476 406L529 406L529 586L582 586L582 559L635 559L635 631L688 631L688 460L741 460L741 487L794 487L794 271L847 271L847 217L900 217L900 424L900 242L900 26L847 26L847 134L794 134L794 251L741 251L741 260L688 260L688 278L635 278L635 197L582 197L582 215L529 215L529 269L476 269L476 278L424 278L424 152L371 152L371 62L318 62L318 242L265 242L265 53L212 53L212 53L159 53L159 170L106 170L106 26L53 26L53 314L0 314Z" fill="#00a1ab"></path><path d="M0 802L53 802L53 802L106 802L106 649L159 649L159 892L212 892L212 721L265 721L265 892L318 892L318 694L371 694L371 676L424 676L424 712L476 712L476 865L529 865L529 838L582 838L582 703L635 703L635 829L688 829L688 658L741 658L741 730L794 730L794 676L847 676L847 703L900 703L900 631L900 422L900 215L847 215L847 269L794 269L794 485L741 485L741 458L688 458L688 629L635 629L635 557L582 557L582 584L529 584L529 404L476 404L476 665L424 665L424 386L371 386L371 512L318 512L318 467L265 467L265 485L212 485L212 152L159 152L159 593L106 593L106 305L53 305L53 359L0 359Z" fill="#00a9d5"></path><path d="M0 901L53 901L53 901L106 901L106 901L159 901L159 901L212 901L212 901L265 901L265 901L318 901L318 901L371 901L371 901L424 901L424 901L476 901L476 901L529 901L529 901L582 901L582 901L635 901L635 901L688 901L688 901L741 901L741 901L794 901L794 901L847 901L847 901L900 901L900 901L900 629L900 701L847 701L847 674L794 674L794 728L741 728L741 656L688 656L688 827L635 827L635 701L582 701L582 836L529 836L529 863L476 863L476 710L424 710L424 674L371 674L371 692L318 692L318 890L265 890L265 719L212 719L212 890L159 890L159 647L106 647L106 800L53 800L53 800L0 800Z" fill="#4facf7"></path></svg>